<svg width="186" height="34" viewBox="0 0 186 34" fill="none" xmlns="http://www.w3.org/2000/svg">
<g clip-path="url(#clip0)">
<path d="M125.918 8.67125L122.169 12.1467V15.7958V19.445H120.877C119.584 19.445 119.584 19.4884 119.584 21.8343C119.584 24.1802 119.584 24.2237 120.877 24.2237H122.169V27.0474V29.8712H124.539H126.908V27.0474V24.2237H129.709H132.509V27.0474V29.8712H134.879H137.248V21.0089V12.1901L133.457 8.67125L129.666 5.19584L125.918 8.67125ZM131.303 12.7983C132.38 13.8409 132.509 14.2753 132.509 16.7081V19.445H129.709H126.908V16.7516C126.908 14.4057 127.081 13.8844 128.072 12.8417C129.493 11.3212 129.795 11.3212 131.303 12.7983Z" fill="black"/>
<path d="M143.581 16.7082C141.341 23.1377 139.359 28.6983 139.187 29.0893C138.971 29.654 139.273 29.9147 140.608 30.3491C141.556 30.6098 142.59 30.7401 142.935 30.6532C143.236 30.5229 144.658 27.1778 146.037 23.1811C147.458 19.2278 148.708 15.9696 148.837 15.9696C148.966 15.9696 150 17.577 151.077 19.4885L153.059 23.0073L154.912 19.6188C156.98 15.7524 156.98 15.7524 157.281 16.0565C157.41 16.1869 158.66 19.445 160.038 23.3114C161.417 27.1778 162.666 30.4795 162.796 30.6098C163.097 30.9139 165.682 30.436 166.458 29.9147C166.931 29.6106 166.156 27.0041 162.753 17.4467C160.383 10.7565 158.272 5.32621 158.057 5.36965C157.884 5.36965 156.764 7.10736 155.558 9.14916C154.395 11.191 153.275 13.0155 153.145 13.1459C152.973 13.2762 151.81 11.5385 150.56 9.23604C149.268 6.97703 148.105 5.109 147.975 5.109C147.803 5.109 145.864 10.3221 143.581 16.7082Z" fill="black"/>
<path d="M38.5908 8.36715C38.5908 10.4524 38.677 10.7565 39.4525 10.7565C40.1848 10.7565 40.3141 11.0606 40.3141 12.7114C40.3141 14.3622 40.1848 14.6663 39.4525 14.6663C38.677 14.6663 38.5908 14.9704 38.5908 17.0557C38.5908 19.1409 38.677 19.445 39.4525 19.445C40.271 19.445 40.3141 19.7491 40.3141 24.6581V29.8712H42.6836H45.0531V24.6581V19.445H46.9918H48.9305V17.0557V14.6663H46.9918H45.0531V12.7114V10.7565H48.4996H51.9462V8.36715V5.97781H45.2685H38.5908V8.36715Z" fill="black"/>
<path d="M53.6694 17.9245V29.8712H56.0389H58.4084V17.9245V5.97781H56.0389H53.6694V17.9245Z" fill="black"/>
<path d="M60.1318 17.9245V29.8712H62.5013H64.8708V27.0474V24.2237H66.3356C67.6281 24.2237 68.0589 24.5712 70.0407 27.0474L72.2809 29.8712H75.2967H78.2693L75.5551 26.5696C71.29 21.4434 71.3762 22.2688 74.5643 18.4024L77.3215 15.0573L73.5734 10.4958L69.8253 5.97781H65.0001H60.1318V17.9245ZM69.6098 12.9286L71.4193 15.1007L69.6098 17.2729C68.102 19.0975 67.585 19.445 66.3356 19.445H64.8708V15.1007V10.7565H66.3356C67.585 10.7565 68.102 11.104 69.6098 12.9286Z" fill="black"/>
<path d="M81.2417 8.36715C81.2417 10.4524 81.3279 10.7565 82.1033 10.7565C82.8357 10.7565 82.965 11.0606 82.965 12.9286C82.965 14.7966 82.8357 15.1007 82.1033 15.1007C81.3279 15.1007 81.2417 15.4048 81.2417 17.4901C81.2417 19.5753 81.3279 19.8794 82.1033 19.8794C82.8788 19.8794 82.965 20.1835 82.965 22.486C82.965 24.7884 82.8788 25.0925 82.1033 25.0925C81.3279 25.0925 81.2417 25.3966 81.2417 27.4819V29.8712H87.9194H94.5971V27.4819V25.0925H91.1505H87.704V22.486V19.8794H91.1505H94.5971V17.4901V15.1007H91.1505H87.704V12.9286V10.7565H91.1505H94.5971V8.36715V5.97781H87.9194H81.2417V8.36715Z" fill="black"/>
<path d="M106.919 11.8426C104.636 15.7958 103.645 17.968 103.817 18.4458C103.989 18.8802 105.497 21.6171 107.22 24.5278L110.322 29.8712H114.113H117.862V27.4819V25.0925H115.32H112.778L110.796 21.704C109.719 19.836 108.814 18.1417 108.814 17.968C108.814 17.7942 109.719 16.0999 110.796 14.2319L112.778 10.7565H115.32H117.862V8.36715V5.97781H114.113H110.322L106.919 11.8426Z" fill="black"/>
<path d="M168.698 17.9245V29.8712H171.067H173.437V27.0474V24.2237H175.936L178.391 24.1802L181.967 19.8794C183.906 17.4901 185.5 15.3614 185.5 15.1007C185.5 14.8401 183.906 12.7114 181.967 10.3221L178.391 6.02125L173.566 5.97781H168.698V17.9245ZM178.176 12.9286L179.985 15.1007L178.133 17.2729C176.625 19.0975 176.065 19.445 174.858 19.445H173.437V15.1007V10.7565H174.902C176.151 10.7565 176.668 11.104 178.176 12.9286Z" fill="black"/>
</g>
<path d="M23.7849 19.0058C23.8078 18.5527 23.8055 18.0988 23.7778 17.646C23.7225 15.6949 23.2361 13.7817 22.3544 12.0485C21.321 10.336 20.0825 8.76108 18.6672 7.36001C17.0503 5.61694 15.8376 2.62751 17.9311 0.746988C17.9128 0.763445 16.6458 0.277406 16.5488 0.251858C15.5259 -0.0459413 14.4464 -0.0802693 13.4073 0.152171C9.98676 1.03428 9.1095 4.57151 9.83591 7.57897C8.24055 7.0503 6.4894 7.43023 5.24439 8.57534C5.11724 8.70434 5.06983 8.89384 5.12062 9.06891C5.17142 9.24414 5.31242 9.3769 5.48806 9.41483C5.8889 9.51953 6.28436 9.6446 6.67289 9.78974C7.71902 10.1386 8.41095 11.1516 8.36846 12.2715C8.19575 12.8894 7.84678 13.4411 7.3659 13.8569C6.87931 14.3914 6.47647 14.9989 6.17153 15.6583C5.67663 16.6764 5.41818 17.7969 5.41633 18.9331C5.41633 23.4985 9.53636 27.1996 14.6185 27.1996C17.1414 27.2199 19.5756 26.2521 21.4174 24.4962C22.8807 23.0512 23.7305 21.0806 23.7849 19.0058Z" fill="#CC4B4C"/>
<path d="M2.72 27.2001H24.4799C25.982 27.2001 27.1999 28.7224 27.1999 30.6001C27.1999 32.4777 25.982 34 24.4799 34H2.72C1.21786 34 0 32.4777 0 30.6001C0 28.7224 1.21786 27.2001 2.72 27.2001Z" fill="#CB8252"/>
<path d="M17.7418 26.6545C17.7418 26.6579 17.7403 26.6611 17.7377 26.6636C17.7351 26.6659 17.7314 26.6672 17.7277 26.6672C16.6041 27.0168 15.4243 27.1964 14.236 27.1991C13.8468 27.2036 13.4577 27.1824 13.072 27.1357V27.1104C10.8704 26.2114 8.51455 24.6033 8.50049 22.4633C8.51988 21.3665 9.07399 20.3333 10.015 19.6396C10.7302 19.0825 11.5996 18.7026 12.3007 18.1455C12.9891 17.6576 13.4857 16.9829 13.7171 16.2208C13.8643 15.3537 13.9066 14.4749 13.8433 13.5997C13.8433 13.6631 14.1799 13.8023 14.236 13.8403C15.4255 14.5607 16.2793 15.6516 16.6339 16.9046C16.6906 17.1387 16.7328 17.3754 16.7601 17.6138V17.6265C16.7284 18.8322 16.2551 19.9945 15.4138 20.9313C15.3857 20.9819 16.0449 21.2225 16.1011 21.2352C16.3566 21.3007 16.6208 21.3348 16.8864 21.3364C17.4107 21.3389 17.9268 21.2213 18.3868 20.9946C18.6176 20.8663 18.8141 20.6933 18.9618 20.4881C19.0946 20.2781 19.1937 20.0521 19.2562 19.8171C19.2562 19.8171 19.5507 20.1083 19.5788 20.1462C19.6998 20.3121 19.8076 20.4856 19.9013 20.6654C20.0653 20.9874 20.1967 21.3223 20.294 21.6658C20.7495 23.6543 19.714 25.6784 17.7418 26.6545Z" fill="#F29C1F"/>
<defs>
<clipPath id="clip0">
<rect x="38.1602" y="4.24011" width="147.34" height="26.5" fill="white"/>
</clipPath>
</defs>
</svg>
